/* XPM */
static char *XPM_icon[] = {
"24 16 17 1 12 8",
"  c None",
"s c #282a2e",
"S c #373b41",
"r c #a54242",
"R c #cc6666",
"g c #8c9440",
"G c #b5bd68",
"y c #de935f",
"Y c #f0c674",
"b c #5f819d",
"B c #81a2be",
"m c #85678f",
"M c #b294bb",
"c c #5e8d87",
"C c #8abeb7",
"w c #707880",
"W c #c5c8c6",
"                        ",
" wwwwwwwwwwwwwwwwwwww   ",
" w                  w   ",
" w bbbbbbbbbbbbbbbb w   ",
" w bbbbbbbbbbbbbbbb www ",
" w bbbYYYYYYYYYbbbb   w ",
" w bbYYYYYYYYYbbbbb   w ",
" w bbbbbbbYYYbbbbbb   w ",
" w bbbbbbYYYbbbbbbb   w ",
" w bbbbbYYYYYYYYYbb   w ",
" w bbbbYYYYYYYYYbbb   w ",
" w bbbbbbbbbbbbbbbb www ",
" w bbbbbbbbbbbbbbbb w   ",
" w                  w   ",
" wwwwwwwwwwwwwwwwwwww   ",
"                        ",
};
