/* XPM */
static char *XPM_icon[] = {
"24 16 17 1 12 8",
"  c None",
"s c #282a2e",
"S c #373b41",
"r c #a54242",
"R c #cc6666",
"g c #8c9440",
"G c #b5bd68",
"y c #de935f",
"Y c #f0c674",
"b c #5f819d",
"B c #81a2be",
"m c #85678f",
"M c #b294bb",
"c c #5e8d87",
"C c #8abeb7",
"w c #707880",
"W c #c5c8c6",
"                        ",
" wwwwwwwwwwwwwwwwwwww   ",
" w                  w   ",
" w bbbbbbbbbbbb     w   ",
" w bbbbbbbbbbbb     www ",
" w bbbYYYYYYYYY       w ",
" w bbYYYYYYYYYb       w ",
" w bbbbbbbYYYbb       w ",
" w bbbbbbYYYbbb       w ",
" w bbbbbYYYYYYYYY     w ",
" w bbbbYYYYYYYYY      w ",
" w bbbbbbbbbbbb     www ",
" w bbbbbbbbbbbb     w   ",
" w                  w   ",
" wwwwwwwwwwwwwwwwwwww   ",
"                        ",
};
